<?xml version="1.0" encoding="iso-8859-1"?>
<!-- Uploaded to: SVG Repo, www.svgrepo.com, Generator: SVG Repo Mixer Tools -->
<svg version="1.1" id="Layer_1" xmlns="http://www.w3.org/2000/svg" xmlns:xlink="http://www.w3.org/1999/xlink" 
	 viewBox="0 0 512 512" xml:space="preserve">
<rect x="7.837" y="109.714" style="fill:#ED9BA3;" width="496.327" height="292.571"/>
<rect x="129.045" y="141.061" style="fill:#FFFFFF;" width="253.91" height="31.347"/>
<rect x="7.837" y="380.865" style="fill:#E57788;" width="496.327" height="21.42"/>
<polygon style="fill:#F9D85C;" points="402.286,402.286 109.714,402.286 144.823,339.592 367.177,339.592 "/>
<polygon style="fill:#DDB92E;" points="378.88,360.49 133.12,360.49 144.823,339.592 367.177,339.592 "/>
<path d="M164.571,384.522c-4.322,0-7.837-3.515-7.837-7.837s3.515-7.837,7.837-7.837s7.837,3.515,7.837,7.837
	S168.893,384.522,164.571,384.522z"/>
<path d="M196.582,381.388c-5.762,0-10.449-4.687-10.449-10.449c0-5.762,4.687-10.449,10.449-10.449s10.449,4.687,10.449,10.449
	C207.031,376.7,202.343,381.388,196.582,381.388z"/>
<path d="M347.429,384.522c4.322,0,7.837-3.515,7.837-7.837s-3.515-7.837-7.837-7.837s-7.837,3.515-7.837,7.837
	S343.107,384.522,347.429,384.522z"/>
<path d="M315.418,381.388c5.762,0,10.449-4.687,10.449-10.449c0-5.762-4.687-10.449-10.449-10.449
	c-5.762,0-10.449,4.687-10.449,10.449C304.969,376.7,309.657,381.388,315.418,381.388z"/>
<path style="fill:#FFFFFF;" d="M407.51,256c0,28.85-23.395,52.245-52.245,52.245H156.735c-28.85,0-52.245-23.395-52.245-52.245
	s23.395-52.245,52.245-52.245h198.531C384.115,203.755,407.51,227.15,407.51,256z"/>
<path style="fill:#DDB92E;" d="M208.98,256c0,28.85-23.395,52.245-52.245,52.245S104.49,284.85,104.49,256
	s23.395-52.245,52.245-52.245S208.98,227.15,208.98,256z"/>
<path style="fill:#F9D85C;" d="M208.98,256H104.49c0-28.85,23.395-52.245,52.245-52.245S208.98,227.15,208.98,256z"/>
<g>
	<circle style="fill:#FFFFFF;" cx="156.735" cy="256" r="20.898"/>
	<circle style="fill:#FFFFFF;" cx="355.265" cy="256" r="20.898"/>
</g>
<path style="fill:#DDB92E;" d="M407.51,256c0,28.85-23.395,52.245-52.245,52.245S303.02,284.85,303.02,256
	s23.395-52.245,52.245-52.245S407.51,227.15,407.51,256z"/>
<path style="fill:#F9D85C;" d="M407.51,256H303.02c0-28.85,23.395-52.245,52.245-52.245S407.51,227.15,407.51,256z"/>
<g>
	<circle style="fill:#FFFFFF;" cx="355.265" cy="256" r="20.898"/>
	<circle style="fill:#FFFFFF;" cx="46.498" cy="364.147" r="15.151"/>
	<circle style="fill:#FFFFFF;" cx="465.502" cy="364.147" r="15.151"/>
	<circle style="fill:#FFFFFF;" cx="46.498" cy="147.853" r="15.151"/>
	<circle style="fill:#FFFFFF;" cx="465.502" cy="147.853" r="15.151"/>
</g>
<path d="M390.792,133.224H121.208v47.02h269.584V133.224z M375.118,164.571H136.882v-15.673h238.237V164.571z"/>
<path d="M0,101.878v308.245h512V101.878H0z M123.085,394.449l26.331-47.02h213.169l26.33,47.02H123.085z M496.327,394.449h-89.447
	l-35.109-62.694H140.229l-35.109,62.694H15.673V117.551h480.653V394.449z"/>
<path d="M156.735,316.082h198.531c33.13,0,60.082-26.952,60.082-60.082s-26.952-60.082-60.082-60.082S295.184,222.87,295.184,256
	c0,17.576,7.587,33.412,19.656,44.408H197.161c12.07-10.996,19.656-26.832,19.656-44.408s-7.587-33.412-19.656-44.408h78.692
	v-15.673H156.735c-33.13,0-60.082,26.952-60.082,60.082S123.605,316.082,156.735,316.082z M310.857,256
	c0-24.487,19.921-44.408,44.408-44.408s44.408,19.921,44.408,44.408s-19.921,44.408-44.408,44.408S310.857,280.487,310.857,256z
	 M156.735,211.592c24.487,0,44.408,19.921,44.408,44.408s-19.921,44.408-44.408,44.408S112.327,280.487,112.327,256
	S132.248,211.592,156.735,211.592z"/>
<path d="M156.735,284.735c15.845,0,28.735-12.891,28.735-28.735s-12.89-28.735-28.735-28.735S128,240.156,128,256
	S140.89,284.735,156.735,284.735z M156.735,242.939c7.202,0,13.061,5.859,13.061,13.061c0,7.202-5.859,13.061-13.061,13.061
	c-7.202,0-13.061-5.859-13.061-13.061C143.673,248.798,149.532,242.939,156.735,242.939z"/>
<path d="M355.265,227.265c-15.844,0-28.735,12.891-28.735,28.735s12.891,28.735,28.735,28.735S384,271.844,384,256
	S371.109,227.265,355.265,227.265z M355.265,269.061c-7.202,0-13.061-5.859-13.061-13.061c0-7.202,5.859-13.061,13.061-13.061
	s13.061,5.859,13.061,13.061C368.327,263.202,362.468,269.061,355.265,269.061z"/>
<rect x="291.527" y="195.918" width="15.673" height="15.673"/>
<path d="M46.498,387.135c12.676,0,22.988-10.312,22.988-22.988c0-12.676-10.312-22.988-22.988-22.988S23.51,351.471,23.51,364.147
	C23.51,376.823,33.822,387.135,46.498,387.135z M46.498,356.833c4.033,0,7.314,3.282,7.314,7.314c0,4.032-3.281,7.314-7.314,7.314
	s-7.314-3.282-7.314-7.314C39.184,360.115,42.465,356.833,46.498,356.833z"/>
<path d="M465.502,387.135c12.676,0,22.988-10.312,22.988-22.988c0-12.676-10.312-22.988-22.988-22.988
	c-12.676,0-22.988,10.312-22.988,22.988C442.514,376.823,452.826,387.135,465.502,387.135z M465.502,356.833
	c4.032,0,7.314,3.282,7.314,7.314c0,4.032-3.282,7.314-7.314,7.314c-4.032,0-7.314-3.282-7.314-7.314
	C458.188,360.115,461.47,356.833,465.502,356.833z"/>
<path d="M46.498,170.841c12.676,0,22.988-10.312,22.988-22.988c0-12.676-10.312-22.988-22.988-22.988S23.51,135.177,23.51,147.853
	C23.51,160.529,33.822,170.841,46.498,170.841z M46.498,140.539c4.033,0,7.314,3.282,7.314,7.314s-3.281,7.314-7.314,7.314
	s-7.314-3.282-7.314-7.314S42.465,140.539,46.498,140.539z"/>
<path d="M465.502,170.841c12.676,0,22.988-10.312,22.988-22.988c0-12.676-10.312-22.988-22.988-22.988
	c-12.676,0-22.988,10.312-22.988,22.988C442.514,160.529,452.826,170.841,465.502,170.841z M465.502,140.539
	c4.032,0,7.314,3.282,7.314,7.314s-3.282,7.314-7.314,7.314c-4.032,0-7.314-3.282-7.314-7.314S461.47,140.539,465.502,140.539z"/>
</svg>